<svg xmlns="http://www.w3.org/2000/svg" width="130" height="27" fill="none"><path fill="#fff" d="M112.982.7666h3.612l4.174 17.2986L124.927.7666h3.19l-5.818 25.2879h-3.077l-6.24-25.288Zm-1.461 0h3.443l.534 16.6733v8.6146h-3.977V.7665Zm15.022 0H130v25.2879h-3.963v-8.6146l.506-16.6733ZM98.9299.7666 102.05 12.16 105.141.7666h4.483l-5.509 16.1002v9.1877h-4.1452v-9.1877L94.4612.7666h4.4687ZM93.9365 12.7679v10.4208c-.2904.3821-.7166.8279-1.2787 1.3374-.5528.4979-1.2788.9379-2.1782 1.32-.89.3705-1.9767.5557-3.2602.5557-1.1335 0-2.1641-.22-3.0915-.66-.9181-.4399-1.7097-1.1057-2.3749-1.9973-.6558-.9031-1.157-2.0263-1.5036-3.3694-.3467-1.3547-.52-2.9583-.52-4.8109v-4.3073c0-1.8294.164-3.4215.4919-4.7762.3372-1.3663.8244-2.501 1.4614-3.4042.6371-.9031 1.3959-1.5747 2.2765-2.0147.89-.44 1.8925-.66 3.0073-.66 1.5364 0 2.7964.3185 3.7801.9553.9931.6368 1.7425 1.5805 2.2484 2.831.5153 1.2505.8244 2.7847.9275 4.6025h-3.9769c-.0656-1.0652-.2108-1.8989-.4356-2.501-.2155-.602-.52-1.0305-.9134-1.2852-.3935-.2663-.9041-.3995-1.5318-.3995-.5433 0-1.0164.1216-1.4193.3647-.4028.2316-.7401.6137-1.0117 1.1463-.2717.5327-.4731 1.2158-.6043 2.0495-.1312.8336-.1967 1.8526-.1967 3.0568v4.342c0 1.1926.0749 2.2115.2248 3.0567.1499.8453.3701 1.5342.6605 2.0668.2998.5327.6745.9205 1.1242 1.1637.459.2316.9977.3474 1.616.3474.4965 0 .8947-.0637 1.1945-.1911.2998-.1274.5387-.2605.7167-.3995.1873-.1505.3419-.2663.4637-.3473v-4.6547h-2.937v-3.8383h7.0403ZM63.1099.7666h6.5625c1.3678 0 2.5341.2894 3.4991.8684.9649.579 1.705 1.4357 2.2203 2.5705.5152 1.1347.7729 2.5357.7729 4.203 0 1.3663-.1499 2.5358-.4497 3.5084-.2998.961-.7261 1.7657-1.2788 2.4141-.5527.6369-1.2132 1.1463-1.9814 1.5284l-1.2507.9205h-5.3259l-.014-4.2204H69.56c.5621 0 1.0258-.1505 1.3912-.4516.3747-.3126.6511-.7468.8291-1.3026.1873-.5673.281-1.2273.281-1.98 0-.7989-.0843-1.482-.2529-2.0494-.1593-.579-.4169-1.0189-.7729-1.32-.3466-.3126-.801-.4689-1.3631-.4689h-2.4451v21.0675h-4.1174V.7665Zm9.2887 25.2879-3.752-11.2719 4.3141-.0174 3.8363 11.0461v.2432h-4.3984ZM59.6855 21.8514v4.2031h-8.8952v-4.2031h8.8952ZM52.069.7666v25.2879h-4.1173V.7665h4.1173Zm6.4221 10.2471v4.0815h-7.7008v-4.0815h7.7008ZM59.6574.7666V4.987h-8.8671V.7666h8.8671ZM39.5719 17.1446h-4.1877v-4.2204h4.1877c.5808 0 1.0539-.1621 1.4193-.4863.3747-.3242.6464-.77.815-1.3373.1686-.579.253-1.2274.253-1.9453 0-.7294-.089-1.4068-.267-2.032-.1687-.6369-.4357-1.1521-.801-1.5458-.356-.3937-.8291-.5905-1.4193-.5905h-2.8668v21.0675h-4.1033V.7665h6.9701c1.3771 0 2.5622.359 3.5552 1.0769.9931.7179 1.7519 1.7079 2.2766 2.97.534 1.2504.801 2.6862.801 4.3072 0 1.6326-.267 3.051-.801 4.2552-.5247 1.1926-1.2835 2.1189-2.2766 2.7789-.993.66-2.1781.9899-3.5552.9899ZM25.3508.7666h4.1033v17.368c0 1.9452-.2904 3.5315-.8712 4.7589-.5715 1.2157-1.3631 2.1073-2.3749 2.6747-1.0118.5557-2.1688.8336-3.471.8336-1.3116 0-2.4779-.2779-3.4991-.8336-1.0211-.5674-1.8174-1.459-2.3889-2.6747-.5621-1.2274-.8431-2.8137-.8431-4.7589V.7666h4.1033v17.368c0 1.1.0984 1.9452.2951 2.5358.2061.5905.5012.9957.8853 1.2157.3935.2084.8759.3127 1.4474.3127.5809 0 1.0586-.1043 1.4334-.3127.3841-.22.6745-.6252.8712-1.2157.2061-.5906.3092-1.4358.3092-2.5358V.7666ZM9.2747 19.4025c0-.4515-.0328-.8626-.0984-1.2331a2.5776 2.5776 0 0 0-.4216-1.0247c-.206-.3126-.5106-.6253-.9134-.9379-.3935-.3126-.9087-.6368-1.5458-.9726a33.8368 33.8368 0 0 1-2.2062-1.2505c-.712-.4516-1.3537-.9726-1.9252-1.5631-.5715-.5905-1.0258-1.2853-1.3631-2.0842-.3279-.8105-.4918-1.76-.4918-2.8483 0-1.0653.1545-2.0321.4637-2.9005.3185-.8684.7682-1.6095 1.349-2.2231.5809-.6253 1.26-1.1058 2.0377-1.4416C4.9465.5871 5.8224.4192 6.7873.4192c1.3115 0 2.4451.3358 3.4007 1.0074.9649.6716 1.7097 1.592 2.2343 2.7615.534 1.1695.801 2.5126.801 4.0294H9.1201c0-.7179-.0843-1.349-.253-1.8931-.1592-.5558-.4169-.99-.7729-1.3026-.356-.3126-.815-.469-1.377-.469-.5247 0-.9604.1332-1.307.3995-.3372.2547-.5902.6079-.7588 1.0595-.1593.44-.239.9378-.239 1.4936 0 .4169.0797.7932.239 1.129.1686.3241.3981.6194.6886.8857.2904.2547.6323.5037 1.0258.7468.4028.2432.8431.4805 1.321.7121.9274.4516 1.7471.9495 2.4591 1.4937.712.5326 1.3069 1.1347 1.7847 1.8063.4778.6599.8385 1.4068 1.082 2.2404.2436.8337.3654 1.7832.3654 2.8484 0 1.0537-.1499 2.0147-.4497 2.8831-.2904.8568-.7167 1.5979-1.2788 2.2231-.5621.6137-1.2413 1.0884-2.0376 1.4242-.787.3358-1.6675.5037-2.6419.5037-.9461 0-1.8408-.1621-2.684-.4864-.8431-.3357-1.588-.8394-2.2343-1.511-.637-.6831-1.1383-1.5457-1.5037-2.5878C.1827 20.763 0 19.5183 0 18.0826h4.1174c0 .7642.0609 1.4183.1827 1.9625.1218.5327.3091.9611.562 1.2853.253.3126.5622.55.9275.7121.3748.1505.801.2258 1.2788.2258.5434 0 .9743-.1274 1.2929-.3821.3278-.2548.562-.5963.7026-1.0248.1405-.4284.2108-.9147.2108-1.4589Z"/></svg>