<svg xmlns="http://www.w3.org/2000/svg" width="25" height="26" fill="none"><path fill="#fff" d="M12.5.402C5.597.402 0 5.999 0 12.902s5.597 12.5 12.5 12.5S25 19.805 25 12.902 19.403.402 12.5.402Z"/><path fill="#030A1A" d="M12.68 7.29c.899 0 1.63.755 1.63 1.683 0 .924-.731 1.679-1.63 1.679-.898 0-1.629-.755-1.629-1.68 0-.927.73-1.681 1.63-1.681Zm0 5.742c2.17 0 3.935-1.822 3.935-4.06 0-2.24-1.764-4.061-3.935-4.061-2.17 0-3.932 1.821-3.932 4.062 0 2.237 1.762 4.059 3.932 4.059Zm1.592 3.313a7.292 7.292 0 0 0 2.284-.977c.538-.35.7-1.084.362-1.64a1.13 1.13 0 0 0-1.591-.375 4.866 4.866 0 0 1-5.296 0 1.127 1.127 0 0 0-1.589.375 1.213 1.213 0 0 0 .363 1.64 7.291 7.291 0 0 0 2.284.977l-2.2 2.269a1.218 1.218 0 0 0 0 1.682c.227.232.52.349.814.349.295 0 .59-.117.818-.35l2.16-2.229 2.162 2.23c.449.466 1.177.466 1.629 0 .449-.464.449-1.218 0-1.682l-2.2-2.269Z"/></svg>