<svg xmlns="http://www.w3.org/2000/svg" width="25" height="26" fill="none"><path fill="#fff" d="M12.5.402C5.597.402 0 5.999 0 12.902s5.597 12.5 12.5 12.5S25 19.805 25 12.902 19.403.402 12.5.402Z"/><path fill="#030A1A" d="M13.851 5.958c-.445 0-.863.225-1.131.551-.268.326-.416.723-.524 1.142-.17.673-.224 1.42-.236 2.093a7.317 7.317 0 0 0-3.327 1.027c-.382-.321-.842-.5-1.283-.495-.503.005-.98.222-1.334.666-.678.85-.6 2.238.186 3.063a4.17 4.17 0 0 0-.085.78c0 2.797 2.858 5.061 6.383 5.061s6.383-2.266 6.383-5.06c0-.264-.036-.526-.084-.78.785-.826.863-2.215.185-3.064a1.697 1.697 0 0 0-1.334-.666c-.44-.004-.9.174-1.283.495a7.313 7.313 0 0 0-3.31-1.027c.017-.621.062-1.266.186-1.75.078-.305.171-.526.27-.648.1-.12.171-.17.338-.17.361 0 .407.116.625.399.11.142.236.32.439.494s.502.324.827.324V7.175c-.09 0-.107-.002-.169-.057-.06-.055-.145-.18-.27-.342-.249-.326-.732-.818-1.452-.818Zm3.512.114c-.84 0-1.52.765-1.52 1.712s.68 1.712 1.52 1.712 1.52-.765 1.52-1.712-.68-1.712-1.52-1.712Zm0 .609c.54 0 .98.494.98 1.103s-.44 1.103-.98 1.103-.98-.494-.98-1.103.44-1.103.98-1.103ZM12.5 10.695c2.991 0 5.522 1.876 5.522 4.09 0 2.217-2.53 4.091-5.522 4.091-2.99 0-5.522-1.874-5.522-4.09 0-2.215 2.531-4.091 5.522-4.091Zm-5.133.552c.15.002.306.04.456.114a4.985 4.985 0 0 0-1.267 1.598c-.202-.47-.148-1.058.101-1.37a.877.877 0 0 1 .71-.342Zm10.267 0a.877.877 0 0 1 .709.342c.249.312.304.9.101 1.37a4.985 4.985 0 0 0-1.266-1.598c.15-.074.306-.112.456-.114Zm-7.295 1.522c-.54 0-.98.495-.98 1.103 0 .61.44 1.104.98 1.104s.98-.495.98-1.104c0-.608-.44-1.103-.98-1.103Zm4.323 0c-.54 0-.98.495-.98 1.103 0 .61.44 1.104.98 1.104s.979-.495.979-1.104c0-.608-.44-1.103-.98-1.103Zm-4.847 3.748c.344.801 1.408 1.579 2.685 1.579 1.277 0 2.358-.778 2.702-1.58-.625.455-1.61.762-2.702.762-1.091 0-2.06-.307-2.685-.761Z"/></svg>